ffmpeg started on 2016-11-26 at 06:05:26
Report written to "Output/NVENCh264/results/ffmpeg/old_town_cross_2160p50bd15000k.log"
Command line:
Tools/ffmpeg/ffmpeg -benchmark -y -i Input/y4m/old_town_cross_2160p50.y4m -c:v h264_nvenc -preset bd -b:v 15000k -an Output/NVENCh264/encoded/old_town_cross_2160p50bd15000k.mkv
ffmpeg version N-82227-gdb23fde Copyright (c) 2000-2016 the FFmpeg developers
  built with gcc 5.4.0 (Ubuntu 5.4.0-6ubuntu1~16.04.2) 20160609
  configuration: --prefix=/home/jaroslav/ffmpeg_build --pkg-config-flags=--static --extra-cflags=-I/home/jaroslav/ffmpeg_build/include --extra-ldflags=-L/home/jaroslav/ffmpeg_build/lib --bindir=/home/jaroslav/bin --enable-gpl --enable-libass --enable-libfdk-aac --enable-libfreetype --enable-libmp3lame --enable-libopus --enable-libtheora --enable-libvorbis --enable-libvpx --enable-libx264 --enable-libx265 --enable-nvenc --enable-libmfx --enable-libxvid --enable-libgsm --enable-libopencore-amrnb --enable-version3 --enable-nonfree
  libavutil      55. 35.100 / 55. 35.100
  libavcodec     57. 66.101 / 57. 66.101
  libavformat    57. 57.100 / 57. 57.100
  libavdevice    57.  2.100 / 57.  2.100
  libavfilter     6. 66.100 /  6. 66.100
  libswscale      4.  3.100 /  4.  3.100
  libswresample   2.  4.100 /  2.  4.100
  libpostproc    54.  2.100 / 54.  2.100
Input #0, yuv4mpegpipe, from 'Input/y4m/old_town_cross_2160p50.y4m':
  Duration: 00:00:10.00, start: 0.000000, bitrate: 4976642 kb/s
    Stream #0:0: Video: rawvideo (I420 / 0x30323449), yuv420p(progressive), 3840x2160, SAR 1:1 DAR 16:9, 50 fps, 50 tbr, 50 tbn, 50 tbc
Output #0, matroska, to 'Output/NVENCh264/encoded/old_town_cross_2160p50bd15000k.mkv':
  Metadata:
    encoder         : Lavf57.57.100
    Stream #0:0: Video: h264 (h264_nvenc) (Main) (H264 / 0x34363248), yuv420p, 3840x2160 [SAR 1:1 DAR 16:9], q=-1--1, 15000 kb/s, 50 fps, 1k tbn, 50 tbc
    Metadata:
      encoder         : Lavc57.66.101 h264_nvenc
    Side data:
      cpb: bitrate max/min/avg: 0/0/15000000 buffer size: 30000000 vbv_delay: -1
Stream mapping:
  Stream #0:0 -> #0:0 (rawvideo (native) -> h264 (h264_nvenc))
Press [q] to stop, [?] for help
frame=   11 fps=0.0 q=0.0 size=       0kB time=00:00:00.00 bitrate=N/A speed=   0x    frame=   20 fps= 17 q=0.0 size=       0kB time=00:00:00.00 bitrate=N/A speed=   0x    frame=   22 fps= 11 q=0.0 size=       0kB time=00:00:00.00 bitrate=N/A speed=   0x    frame=   30 fps= 12 q=0.0 size=       0kB time=00:00:00.00 bitrate=N/A speed=   0x    frame=   47 fps= 14 q=32.0 size=       1kB time=00:00:00.32 bitrate=  18.6kbits/s speed=0.0969x    frame=   51 fps= 11 q=32.0 size=       1kB time=00:00:00.40 bitrate=  14.9kbits/s speed=0.0894x    frame=   54 fps= 10 q=31.0 size=       1kB time=00:00:00.46 bitrate=  13.0kbits/s speed=0.0872x    frame=   60 fps=9.7 q=32.0 size=       1kB time=00:00:00.58 bitrate=  10.3kbits/s speed=0.0941x    frame=   64 fps=9.1 q=32.0 size=       1kB time=00:00:00.66 bitrate=   9.1kbits/s speed=0.0943x    frame=   67 fps=8.9 q=32.0 size=       1kB time=00:00:00.72 bitrate=   8.3kbits/s speed=0.0958x    frame=   74 fps=9.1 q=31.0 size=       1kB time=00:00:00.86 bitrate=   7.0kbits/s speed=0.106x    frame=   80 fps=9.3 q=31.0 size=       1kB time=00:00:00.98 bitrate=   6.1kbits/s speed=0.114x    frame=   81 fps=8.8 q=32.0 size=       1kB time=00:00:01.00 bitrate=   6.0kbits/s speed=0.109x    frame=   82 fps=8.3 q=31.0 size=       1kB time=00:00:01.02 bitrate=   5.9kbits/s speed=0.104x    frame=   83 fps=7.9 q=32.0 size=       1kB time=00:00:01.04 bitrate=   5.7kbits/s speed=0.0993x    frame=   86 fps=7.6 q=31.0 size=       1kB time=00:00:01.10 bitrate=   5.4kbits/s speed=0.0978x    frame=   87 fps=7.4 q=32.0 size=       1kB time=00:00:01.12 bitrate=   5.3kbits/s speed=0.0951x    frame=   89 fps=7.2 q=32.0 size=       1kB time=00:00:01.16 bitrate=   5.2kbits/s speed=0.0938x    frame=   92 fps=7.0 q=31.0 size=       1kB time=00:00:01.22 bitrate=   4.9kbits/s speed=0.0929x    frame=   96 fps=6.9 q=31.0 size=       1kB time=00:00:01.30 bitrate=   4.6kbits/s speed=0.094x    frame=   98 fps=6.6 q=32.0 size=       1kB time=00:00:01.34 bitrate=   4.5kbits/s speed=0.0909x    frame=   99 fps=6.4 q=31.0 size=       1kB time=00:00:01.36 bitrate=   4.4kbits/s speed=0.0883x    frame=  101 fps=6.1 q=32.0 size=       1kB time=00:00:01.40 bitrate=   4.3kbits/s speed=0.0846x    frame=  102 fps=6.0 q=31.0 size=       1kB time=00:00:01.42 bitrate=   4.2kbits/s speed=0.0832x    frame=  104 fps=5.8 q=31.0 size=       1kB time=00:00:01.46 bitrate=   4.1kbits/s speed=0.0818x    frame=  106 fps=5.7 q=31.0 size=       1kB time=00:00:01.50 bitrate=   4.0kbits/s speed=0.0808x    frame=  112 fps=5.9 q=31.0 size=       1kB time=00:00:01.62 bitrate=   3.7kbits/s speed=0.0848x    frame=  114 fps=5.7 q=31.0 size=       1kB time=00:00:01.66 bitrate=   3.6kbits/s speed=0.0826x    frame=  116 fps=5.4 q=31.0 size=       1kB time=00:00:01.70 bitrate=   3.5kbits/s speed=0.0797x    frame=  118 fps=5.3 q=32.0 size=       1kB time=00:00:01.74 bitrate=   3.4kbits/s speed=0.0777x    frame=  121 fps=5.2 q=31.0 size=       1kB time=00:00:01.80 bitrate=   3.3kbits/s speed=0.0772x    frame=  122 fps=5.1 q=31.0 size=       1kB time=00:00:01.82 bitrate=   3.3kbits/s speed=0.0764x    frame=  124 fps=5.1 q=31.0 size=       1kB time=00:00:01.86 bitrate=   3.2kbits/s speed=0.0764x    frame=  130 fps=5.2 q=31.0 size=       1kB time=00:00:01.98 bitrate=   3.0kbits/s speed=0.0793x    frame=  139 fps=5.5 q=31.0 size=       1kB time=00:00:02.16 bitrate=   2.8kbits/s speed=0.0848x    frame=  148 fps=5.6 q=31.0 size=       1kB time=00:00:02.34 bitrate=   2.6kbits/s speed=0.0887x    frame=  149 fps=5.5 q=32.0 size=       1kB time=00:00:02.36 bitrate=   2.5kbits/s speed=0.0874x    frame=  151 fps=5.5 q=32.0 size=       1kB time=00:00:02.40 bitrate=   2.5kbits/s speed=0.0869x    frame=  155 fps=5.5 q=31.0 size=       1kB time=00:00:02.48 bitrate=   2.4kbits/s speed=0.0874x    frame=  166 fps=5.7 q=32.0 size=       1kB time=00:00:02.70 bitrate=   2.2kbits/s speed=0.0928x    frame=  171 fps=5.8 q=31.0 size=    5141kB time=00:00:02.80 bitrate=15034.5kbits/s speed=0.0945x    frame=  172 fps=5.7 q=32.0 size=    5141kB time=00:00:02.82 bitrate=14927.9kbits/s speed=0.0932x    frame=  175 fps=5.6 q=31.0 size=    5141kB time=00:00:02.88 bitrate=14617.0kbits/s speed=0.0928x    frame=  176 fps=5.6 q=31.0 size=    5141kB time=00:00:02.90 bitrate=14516.2kbits/s speed=0.0916x    frame=  177 fps=5.5 q=31.0 size=    5141kB time=00:00:02.92 bitrate=14416.9kbits/s speed=0.0906x    frame=  179 fps=5.5 q=31.0 size=    5141kB time=00:00:02.96 bitrate=14222.1kbits/s speed=0.0902x    frame=  186 fps=5.5 q=31.0 size=    5141kB time=00:00:03.10 bitrate=13580.0kbits/s speed=0.0922x    frame=  190 fps=5.5 q=31.0 size=    5141kB time=00:00:03.18 bitrate=13238.5kbits/s speed=0.0923x    frame=  198 fps=5.6 q=31.0 size=    5141kB time=00:00:03.34 bitrate=12604.5kbits/s speed=0.0948x    frame=  199 fps=5.5 q=31.0 size=    5141kB time=00:00:03.36 bitrate=12529.5kbits/s speed=0.0935x    frame=  203 fps=5.5 q=31.0 size=    5141kB time=00:00:03.44 bitrate=12238.2kbits/s speed=0.0936x    frame=  213 fps=5.6 q=31.0 size=    5141kB time=00:00:03.64 bitrate=11566.0kbits/s speed=0.0965x    frame=  215 fps=5.6 q=31.0 size=    5141kB time=00:00:03.68 bitrate=11440.3kbits/s speed=0.0952x    frame=  217 fps=5.5 q=31.0 size=    5141kB time=00:00:03.72 bitrate=11317.3kbits/s speed=0.0935x    frame=  223 fps=5.5 q=32.0 size=    5141kB time=00:00:03.84 bitrate=10963.7kbits/s speed=0.0953x    frame=  227 fps=5.5 q=31.0 size=    5141kB time=00:00:03.92 bitrate=10740.0kbits/s speed=0.0953x    frame=  230 fps=5.5 q=31.0 size=    5141kB time=00:00:03.98 bitrate=10578.2kbits/s speed=0.095x    frame=  231 fps=5.4 q=31.0 size=    5141kB time=00:00:04.00 bitrate=10525.3kbits/s speed=0.0934x    frame=  232 fps=5.3 q=31.0 size=    5141kB time=00:00:04.02 bitrate=10472.9kbits/s speed=0.0926x    frame=  234 fps=5.3 q=31.0 size=    5141kB time=00:00:04.06 bitrate=10369.8kbits/s speed=0.0925x    frame=  236 fps=5.3 q=31.0 size=    5141kB time=00:00:04.10 bitrate=10268.6kbits/s speed=0.0918x    frame=  238 fps=5.3 q=31.0 size=    5141kB time=00:00:04.14 bitrate=10169.4kbits/s speed=0.0916x    frame=  245 fps=5.4 q=32.0 size=    5141kB time=00:00:04.28 bitrate=9836.9kbits/s speed=0.0935x    frame=  263 fps=5.7 q=31.0 size=    5141kB time=00:00:04.64 bitrate=9073.8kbits/s speed= 0.1x    frame=  281 fps=6.0 q=27.0 size=    9602kB time=00:00:05.00 bitrate=15729.4kbits/s speed=0.107x    frame=  298 fps=6.3 q=32.0 size=    9602kB time=00:00:05.34 bitrate=14728.1kbits/s speed=0.113x    frame=  316 fps=6.6 q=32.0 size=    9602kB time=00:00:05.70 bitrate=13798.1kbits/s speed=0.119x    frame=  334 fps=6.9 q=32.0 size=    9602kB time=00:00:06.06 bitrate=12978.5kbits/s speed=0.125x    frame=  352 fps=7.2 q=32.0 size=    9602kB time=00:00:06.42 bitrate=12250.9kbits/s speed=0.131x    frame=  370 fps=7.5 q=32.0 size=    9602kB time=00:00:06.78 bitrate=11600.5kbits/s speed=0.137x    frame=  388 fps=7.8 q=32.0 size=    9602kB time=00:00:07.14 bitrate=11015.7kbits/s speed=0.143x    frame=  406 fps=8.1 q=31.0 size=    9602kB time=00:00:07.50 bitrate=10487.0kbits/s speed=0.149x    frame=  424 fps=8.3 q=31.0 size=   14754kB time=00:00:07.86 bitrate=15375.1kbits/s speed=0.154x    frame=  442 fps=8.6 q=32.0 size=   14754kB time=00:00:08.22 bitrate=14701.8kbits/s speed=0.16x    frame=  460 fps=8.9 q=32.0 size=   14754kB time=00:00:08.58 bitrate=14085.0kbits/s speed=0.165x    frame=  478 fps=9.1 q=32.0 size=   14754kB time=00:00:08.94 bitrate=13517.9kbits/s speed=0.17x    frame=  496 fps=9.4 q=32.0 size=   14754kB time=00:00:09.30 bitrate=12994.7kbits/s speed=0.176x    frame=  500 fps=9.4 q=32.0 Lsize=   19073kB time=00:00:09.98 bitrate=15654.2kbits/s speed=0.188x    
video:19068kB audio:0kB subtitle:0kB other streams:0kB global headers:0kB muxing overhead: 0.024967%
bench: utime=1.400s
bench: maxrss=1398352kB
